<svg width="16" height="18" viewBox="0 0 16 18" fill="none" xmlns="http://www.w3.org/2000/svg">
<path d="M3.83333 8.99996H5.5V10.6666H3.83333V8.99996ZM15.5 3.99996V15.6666C15.5 16.1087 15.3244 16.5326 15.0118 16.8451C14.6993 17.1577 14.2754 17.3333 13.8333 17.3333H2.16667C1.24167 17.3333 0.5 16.5833 0.5 15.6666V3.99996C0.5 3.55793 0.675595 3.13401 0.988155 2.82145C1.30072 2.50889 1.72464 2.33329 2.16667 2.33329H3V0.666626H4.66667V2.33329H11.3333V0.666626H13V2.33329H13.8333C14.2754 2.33329 14.6993 2.50889 15.0118 2.82145C15.3244 3.13401 15.5 3.55793 15.5 3.99996ZM2.16667 5.66663H13.8333V3.99996H2.16667V5.66663ZM13.8333 15.6666V7.33329H2.16667V15.6666H13.8333ZM10.5 10.6666V8.99996H12.1667V10.6666H10.5ZM7.16667 10.6666V8.99996H8.83333V10.6666H7.16667ZM3.83333 12.3333H5.5V14H3.83333V12.3333ZM10.5 14V12.3333H12.1667V14H10.5ZM7.16667 14V12.3333H8.83333V14H7.16667Z" fill="#939498"/>
</svg>
