<svg width="22" height="22" viewBox="0 0 22 22" fill="none" xmlns="http://www.w3.org/2000/svg">
<path d="M9.35471 12.645C9.83305 13.1 9.83305 13.8466 9.35471 14.3016C8.89971 14.7566 8.15305 14.7566 7.69805 14.3016C5.42305 12.0266 5.42305 8.32829 7.69805 6.05329L11.828 1.92329C14.103 -0.351709 17.8014 -0.351709 20.0764 1.92329C22.3514 4.19829 22.3514 7.89663 20.0764 10.1716L18.338 11.91C18.3497 10.9533 18.198 9.99662 17.8714 9.08663L18.4197 8.52663C19.7964 7.16163 19.7964 4.94496 18.4197 3.57996C17.0547 2.20329 14.838 2.20329 13.473 3.57996L9.35471 7.69829C7.97805 9.06329 7.97805 11.28 9.35471 12.645ZM12.6447 7.69829C13.0997 7.24329 13.8464 7.24329 14.3014 7.69829C16.5764 9.97329 16.5764 13.6716 14.3014 15.9466L10.1714 20.0766C7.89638 22.3516 4.19805 22.3516 1.92305 20.0766C-0.351953 17.8016 -0.351953 14.1033 1.92305 11.8283L3.66138 10.09C3.64971 11.0466 3.80138 12.0033 4.12805 12.925L3.57971 13.4733C2.20305 14.8383 2.20305 17.055 3.57971 18.42C4.94471 19.7966 7.16138 19.7966 8.52638 18.42L12.6447 14.3016C14.0214 12.9366 14.0214 10.72 12.6447 9.35496C12.1664 8.89996 12.1664 8.15329 12.6447 7.69829Z" fill="#939498"/>
</svg>
