<svg width="22" height="14" viewBox="0 0 22 14" fill="none" xmlns="http://www.w3.org/2000/svg">
<path d="M20.5393 13.0156H18.1615C17.2103 13.0156 17.0518 12.2229 15.4665 10.7962C14.0398 9.52799 13.4057 9.36946 13.0886 9.36946C12.6131 9.36946 12.4545 9.52799 12.4545 10.1621V12.2229C12.4545 12.857 12.296 13.1741 10.8693 13.1741C8.49139 13.1741 5.79645 11.7473 3.89414 8.89389C1.04068 4.93074 0.248047 1.76023 0.248047 1.28465C0.248047 0.650548 0.406573 0.333496 1.04068 0.333496H3.41856C4.05266 0.333496 4.21119 0.650548 4.36972 1.28465C5.4794 4.61369 7.3817 7.46715 8.17433 7.46715C8.49139 7.46715 8.64991 7.30863 8.64991 6.516V3.18696C8.64991 1.6017 7.69876 1.44318 7.69876 0.967598C7.69876 0.650547 8.01581 0.333496 8.33286 0.333496H11.979C12.4545 0.333496 12.6131 0.650548 12.6131 1.12612V5.72337C12.6131 6.19895 12.7716 6.35747 12.9301 6.35747C13.2472 6.35747 13.4057 6.19895 14.0398 5.72337C15.7836 3.82106 16.8933 0.967598 16.8933 0.967598C17.0518 0.650547 17.3688 0.333496 18.0029 0.333496H20.2223C20.8564 0.333496 21.0149 0.650548 20.8564 1.12612C20.5393 2.39433 17.6859 6.516 17.8444 6.516C17.5274 6.83305 17.5274 7.1501 17.8444 7.46715C18.0029 7.78421 18.9541 8.57683 19.4297 9.05241C20.3808 10.1621 21.1734 11.1132 21.332 11.7473C21.4905 12.6985 21.1734 13.0156 20.5393 13.0156Z" fill="#4B729F"/>
</svg>
