<svg width="18" height="24" viewBox="0 0 18 24" fill="none" xmlns="http://www.w3.org/2000/svg">
<path d="M9.00065 5.58337C9.7742 5.58337 10.5161 5.89067 11.063 6.43765C11.61 6.98463 11.9173 7.72649 11.9173 8.50004C11.9173 8.88306 11.8419 9.26234 11.6953 9.6162C11.5487 9.97007 11.3339 10.2916 11.063 10.5624C10.7922 10.8333 10.4707 11.0481 10.1168 11.1947C9.76295 11.3413 9.38367 11.4167 9.00065 11.4167C8.2271 11.4167 7.48524 11.1094 6.93826 10.5624C6.39128 10.0155 6.08398 9.27359 6.08398 8.50004C6.08398 7.72649 6.39128 6.98463 6.93826 6.43765C7.48524 5.89067 8.2271 5.58337 9.00065 5.58337ZM9.00065 0.333374C11.1666 0.333374 13.2438 1.19379 14.7754 2.72534C16.3069 4.25688 17.1673 6.33411 17.1673 8.50004C17.1673 14.625 9.00065 23.6667 9.00065 23.6667C9.00065 23.6667 0.833984 14.625 0.833984 8.50004C0.833984 6.33411 1.6944 4.25688 3.22595 2.72534C4.75749 1.19379 6.83472 0.333374 9.00065 0.333374ZM9.00065 2.66671C7.45356 2.66671 5.96982 3.28129 4.87586 4.37525C3.7819 5.46921 3.16732 6.95294 3.16732 8.50004C3.16732 9.66671 3.16732 12 9.00065 19.8284C14.834 12 14.834 9.66671 14.834 8.50004C14.834 6.95294 14.2194 5.46921 13.1254 4.37525C12.0315 3.28129 10.5477 2.66671 9.00065 2.66671Z" fill="#939498"/>
</svg>
