<svg width="18" height="16" viewBox="0 0 18 16" fill="none" xmlns="http://www.w3.org/2000/svg">
<path d="M16.4993 8.83333H1.49935C1.27834 8.83333 1.06637 8.92113 0.910093 9.07741C0.753813 9.23369 0.666016 9.44565 0.666016 9.66667V14.6667C0.666016 14.8877 0.753813 15.0996 0.910093 15.2559C1.06637 15.4122 1.27834 15.5 1.49935 15.5H16.4993C16.7204 15.5 16.9323 15.4122 17.0886 15.2559C17.2449 15.0996 17.3327 14.8877 17.3327 14.6667V9.66667C17.3327 9.44565 17.2449 9.23369 17.0886 9.07741C16.9323 8.92113 16.7204 8.83333 16.4993 8.83333ZM15.666 13.8333H2.33268V10.5H15.666V13.8333ZM16.4993 0.5H1.49935C1.27834 0.5 1.06637 0.587797 0.910093 0.744078C0.753813 0.900358 0.666016 1.11232 0.666016 1.33333V6.33333C0.666016 6.55435 0.753813 6.76631 0.910093 6.92259C1.06637 7.07887 1.27834 7.16667 1.49935 7.16667H16.4993C16.7204 7.16667 16.9323 7.07887 17.0886 6.92259C17.2449 6.76631 17.3327 6.55435 17.3327 6.33333V1.33333C17.3327 1.11232 17.2449 0.900358 17.0886 0.744078C16.9323 0.587797 16.7204 0.5 16.4993 0.5ZM15.666 5.5H2.33268V2.16667H15.666V5.5Z" fill="#939498"/>
</svg>
