<svg width="18" height="18" viewBox="0 0 18 18" fill="none" xmlns="http://www.w3.org/2000/svg">
<path d="M12.6327 10.6666C12.6994 10.1166 12.7493 9.56663 12.7493 8.99996C12.7493 8.43329 12.6994 7.88329 12.6327 7.33329H15.4493C15.5827 7.86663 15.666 8.42496 15.666 8.99996C15.666 9.57496 15.5827 10.1333 15.4493 10.6666H12.6327ZM11.1577 15.3C11.6577 14.375 12.041 13.375 12.3077 12.3333H14.766C13.966 13.7083 12.691 14.775 11.1577 15.3ZM10.9493 10.6666H7.04935C6.96602 10.1166 6.91602 9.56663 6.91602 8.99996C6.91602 8.43329 6.96602 7.87496 7.04935 7.33329H10.9493C11.0243 7.87496 11.0827 8.43329 11.0827 8.99996C11.0827 9.56663 11.0243 10.1166 10.9493 10.6666ZM8.99935 15.6333C8.30768 14.6333 7.74935 13.525 7.40768 12.3333H10.591C10.2493 13.525 9.69102 14.6333 8.99935 15.6333ZM5.66602 5.66663H3.23268C4.02435 4.28329 5.30768 3.21663 6.83268 2.69996C6.33268 3.62496 5.95768 4.62496 5.66602 5.66663ZM3.23268 12.3333H5.66602C5.95768 13.375 6.33268 14.375 6.83268 15.3C5.30768 14.775 4.02435 13.7083 3.23268 12.3333ZM2.54935 10.6666C2.41602 10.1333 2.33268 9.57496 2.33268 8.99996C2.33268 8.42496 2.41602 7.86663 2.54935 7.33329H5.36602C5.29935 7.88329 5.24935 8.43329 5.24935 8.99996C5.24935 9.56663 5.29935 10.1166 5.36602 10.6666H2.54935ZM8.99935 2.35829C9.69102 3.35829 10.2493 4.47496 10.591 5.66663H7.40768C7.74935 4.47496 8.30768 3.35829 8.99935 2.35829ZM14.766 5.66663H12.3077C12.041 4.62496 11.6577 3.62496 11.1577 2.69996C12.691 3.22496 13.966 4.28329 14.766 5.66663ZM8.99935 0.666626C4.39102 0.666626 0.666016 4.41663 0.666016 8.99996C0.666016 11.2101 1.54399 13.3297 3.10679 14.8925C3.88061 15.6663 4.79927 16.2802 5.81032 16.699C6.82137 17.1177 7.905 17.3333 8.99935 17.3333C11.2095 17.3333 13.3291 16.4553 14.8919 14.8925C16.4547 13.3297 17.3327 11.2101 17.3327 8.99996C17.3327 7.90561 17.1171 6.82198 16.6983 5.81093C16.2796 4.79988 15.6657 3.88122 14.8919 3.1074C14.1181 2.33358 13.1994 1.71975 12.1884 1.30096C11.1773 0.882174 10.0937 0.666626 8.99935 0.666626Z" fill="#939498"/>
</svg>
