<svg width="18" height="18" viewBox="0 0 18 18" fill="none" xmlns="http://www.w3.org/2000/svg">
<path d="M5.535 0.75H12.465C15.105 0.75 17.25 2.895 17.25 5.535V12.465C17.25 13.7341 16.7459 14.9511 15.8485 15.8485C14.9511 16.7459 13.7341 17.25 12.465 17.25H5.535C2.895 17.25 0.75 15.105 0.75 12.465V5.535C0.75 4.26594 1.25413 3.04886 2.15149 2.15149C3.04886 1.25413 4.26594 0.75 5.535 0.75ZM5.37 2.4C4.58231 2.4 3.82688 2.71291 3.26989 3.26989C2.71291 3.82688 2.4 4.58231 2.4 5.37V12.63C2.4 14.2717 3.72825 15.6 5.37 15.6H12.63C13.4177 15.6 14.1731 15.2871 14.7301 14.7301C15.2871 14.1731 15.6 13.4177 15.6 12.63V5.37C15.6 3.72825 14.2717 2.4 12.63 2.4H5.37ZM13.3313 3.6375C13.6048 3.6375 13.8671 3.74615 14.0605 3.93955C14.2539 4.13294 14.3625 4.39525 14.3625 4.66875C14.3625 4.94225 14.2539 5.20456 14.0605 5.39795C13.8671 5.59135 13.6048 5.7 13.3313 5.7C13.0577 5.7 12.7954 5.59135 12.602 5.39795C12.4086 5.20456 12.3 4.94225 12.3 4.66875C12.3 4.39525 12.4086 4.13294 12.602 3.93955C12.7954 3.74615 13.0577 3.6375 13.3313 3.6375ZM9 4.875C10.094 4.875 11.1432 5.3096 11.9168 6.08318C12.6904 6.85677 13.125 7.90598 13.125 9C13.125 10.094 12.6904 11.1432 11.9168 11.9168C11.1432 12.6904 10.094 13.125 9 13.125C7.90598 13.125 6.85677 12.6904 6.08318 11.9168C5.3096 11.1432 4.875 10.094 4.875 9C4.875 7.90598 5.3096 6.85677 6.08318 6.08318C6.85677 5.3096 7.90598 4.875 9 4.875ZM9 6.525C8.34359 6.525 7.71406 6.78576 7.24991 7.24991C6.78576 7.71406 6.525 8.34359 6.525 9C6.525 9.65641 6.78576 10.2859 7.24991 10.7501C7.71406 11.2142 8.34359 11.475 9 11.475C9.65641 11.475 10.2859 11.2142 10.7501 10.7501C11.2142 10.2859 11.475 9.65641 11.475 9C11.475 8.34359 11.2142 7.71406 10.7501 7.24991C10.2859 6.78576 9.65641 6.525 9 6.525Z" fill="#2D4E96"/>
</svg>
